<?xml version="1.0" encoding="utf-8"?>
<!-- Generator: Adobe Illustrator 24.0.1, SVG Export Plug-In . SVG Version: 6.00 Build 0)  -->
<svg version="1.1" id="Layer_1" xmlns="http://www.w3.org/2000/svg" xmlns:xlink="http://www.w3.org/1999/xlink" x="0px" y="0px"
	 viewBox="0 0 468 87" style="enable-background:new 0 0 468 87;" xml:space="preserve">
<style type="text/css">
	.st0{fill-rule:evenodd;clip-rule:evenodd;fill:#373F51;}
	.st1{fill-rule:evenodd;clip-rule:evenodd;fill:#8DC4C7;}
	.st2{fill-rule:evenodd;clip-rule:evenodd;fill:#00A2A7;}
</style>
<g id="letters_1_">
	<polygon id="Fill-38_2_" class="st0" points="110.2,68 105.5,68 105.5,24.8 111,24.8 124.4,55.7 136.8,24.8 142.2,24.8 142.2,68 
		137.2,68 137.2,42.3 137.3,34.6 137.2,34.6 134.4,42.3 126.8,61.5 121.1,61.5 112.8,42.2 110.2,35.2 110.1,35.2 110.2,42.2 	"/>
	<path id="Fill-39_2_" class="st0" d="M159.7,51.8h16.1L168,31.7L159.7,51.8z M153,68h-5.3l18.1-43.2h5.8L188.3,68h-6.2l-4.6-11.9
		h-19.5L153,68z"/>
	<path id="Fill-40_2_" class="st0" d="M199.3,45.1h5.6c2.4,0,4.2-0.4,5.4-1.1c1.2-0.7,2.2-1.8,2.9-3.1c0.7-1.4,1.1-2.8,1.1-4.4
		c0-1.4-0.3-2.6-0.9-3.6c-0.6-1.1-1.4-2-2.5-2.7c-1.1-0.7-3-1.1-5.6-1.1h-6.1V45.1z M199.3,68h-5.8V24.8h13.7c3.4,0,5.9,0.5,7.6,1.4
		c1.7,0.9,3,2.3,4,4.1c1,1.8,1.5,3.7,1.5,5.8c0,1.7-0.3,3.3-1,4.9c-0.7,1.5-1.6,2.9-2.8,4.2c-1.2,1.3-3.1,2.4-5.6,3.4
		c1,0.5,1.7,1,2.2,1.5c0.5,0.5,1.1,1.2,1.7,2.3c0.7,1,1.3,2,1.8,2.9l7,12.8h-6.6l-6.1-11.4c-1.5-2.7-3.4-5.1-5.8-7.2h-5.8V68z"/>
	<polygon id="Fill-41_2_" class="st0" points="234.7,68 229.1,68 229.1,24.8 234.7,24.8 234.7,45.4 252.7,24.8 259.1,24.8 
		241.4,45.1 261.9,68 254.8,68 234.7,45.4 	"/>
	<polygon id="Fill-42_2_" class="st0" points="266.6,68 266.6,24.8 291.3,24.8 291.3,29.6 272.2,29.6 272.2,43.2 288.9,43.2 
		288.9,47.5 272.2,47.5 272.2,63.2 292.8,63.2 292.8,68 	"/>
	<polygon id="Fill-43_2_" class="st0" points="312.4,68 312.4,29.1 297.5,29.1 297.5,24.8 332.9,24.8 332.9,29.1 318.1,29.1 
		318.1,68 	"/>
	<path id="Fill-44_2_" class="st0" d="M357.4,46.6h3.8c5,0,8.3-1,9.9-2.9c1.6-1.9,2.4-4.2,2.4-6.9c0-2.3-0.6-4.2-1.9-5.6
		c-1.3-1.4-3.8-2.1-7.6-2.1h-6.5V46.6z M357.4,68h-5.6V24.8h12.1c4.6,0,7.8,0.5,9.7,1.4c1.9,0.9,3.3,2.3,4.3,4.1
		c1,1.8,1.4,3.9,1.4,6.3c0,4-1.4,7.4-4.2,10.2c-2.8,2.7-6.9,4.1-12.4,4.1h-5.4V68z"/>
	<path id="Fill-45_2_" class="st0" d="M393.8,51.8h16.1l-7.8-20.1L393.8,51.8z M387.1,68h-5.3l18.1-43.2h5.8L422.4,68h-6.2
		l-4.6-11.9h-19.5L387.1,68z"/>
	<polygon id="Fill-46_2_" class="st0" points="443.9,68 438.1,68 438.1,47.7 423.9,24.8 430.6,24.8 441.6,42.2 452.4,24.8 458,24.8 
		443.9,47.7 	"/>
</g>
<polygon id="Fill-47" class="st0" points="79.3,26.6 52.2,0 52.2,53.2 "/>
<polygon id="Fill-48" class="st1" points="0,26.8 21.9,4.8 19.6,26.8 46.4,87 "/>
<polygon id="Fill-49" class="st2" points="19.3,26.8 46.4,0 46.4,87 "/>
</svg>
